<svg height="40.5" viewBox="0 0 223.60001 40.5" width="223.6" xmlns="http://www.w3.org/2000/svg"><g fill="#fff" transform="matrix(.125 0 0 -.125 0 40.5)"><path d="m342.1 205.2c-41.9 0-74.3-34.3-74.3-75.8s32.3-75.8 74.3-75.8c41 0 72.3 34.4 72.3 75.8 0 41.5-31.3 75.8-72.3 75.8m126.9 50.6v-252.7h-56.6v26.3c-10.7-13.7-38.4-29.4-72.3-29.4-72.3 0-126.9 53.5-126.9 129.4 0 75.8 54.6 129.4 126.9 129.4 33.4 0 61.7-15.7 72.3-29.3v26.3z"/><path d="m611.7 53.5c44 0 73.3 32.3 73.3 75.8s-29.3 75.8-73.3 75.8c-43.9 0-72.8-32.3-72.8-75.8s28.9-75.8 72.8-75.8m-127.4-50.5v316h55.6v-89.5c15.7 17.2 42.9 29.3 74.3 29.3 75.3 0 125.4-50.5 125.4-129.4s-50.1-129.4-125.4-129.4c-33.3 0-58.1 13.6-74.3 29.3v-26.3h-55.6"/><path d="m849.1 205.2c-42 0-74.3-34.3-74.3-75.8s32.3-75.8 74.3-75.8c40.9 0 72.3 34.4 72.3 75.8 0 41.5-31.4 75.8-72.3 75.8m126.8 50.6v-252.7h-56.6v26.3c-10.6-13.7-38.4-29.4-72.3-29.4-72.3 0-126.8 53.5-126.8 129.4 0 75.8 54.6 129.4 126.8 129.4 33.4 0 61.7-15.7 72.3-29.3v26.3z"/><path d="m991.2 255.7h55.7v-28.8c11.5 15.1 34.2 31.9 69.2 31.9 62.7 0 97-36.9 97-104.1v-151.7h-55.6v139.5c0 44.5-18.6 63.7-55.1 63.7-36.4 0-55.5-26.3-55.5-63.7v-139.5h-55.7z"/><path d="m0 319.3h55.7v-92.5c11.5 15.1 34.2 31.9 69.1 31.9 62.7 0 97.1-36.9 97.1-104.1v-151.7h-55.6v139.5c0 44.5-18.7 63.7-55.1 63.7s-55.5-26.3-55.5-63.7v-139.5l-55.7.1v316.3"/><path d="m1266.2 160.7h134.5c-8.1 26.2-35.4 47.4-67.2 47.4s-59.2-21.2-67.2-47.4m-2.5-49.6c6.1-31.9 34.9-57.7 71.2-57.7 25.8 0 46.5 8.1 57.1 24.3h66.2c-17.2-46-66.2-76.8-123.3-76.8-73.3 0-129.8 57.5-129.8 129.3 0 71.9 56.5 129.4 128.3 129.4 71.7 0 128.3-57.6 128.3-129.4 0-6.6-.5-13.1-1.5-19.2h-196.6"/><path d="m1659.5 53.5c43.4 0 72.7 30.8 72.7 74.8s-29.2 75.1-72.7 75.1-72.9-31.1-72.9-75.1 29.5-74.8 72.9-74.8m0 203.5c74.8 0 129.2-54.9 129.2-128.7.1-73.9-54.4-128.3-129.2-128.3s-129.6 54.4-129.6 128.3c0 73.8 54.7 128.7 129.6 128.7"/><path d="m1659.5 53.5c43.4 0 72.7 30.8 72.7 74.8s-29.2 75.1-72.7 75.1-72.9-31.1-72.9-75.1 29.5-74.8 72.9-74.8m0 203.5c74.8 0 129.2-54.9 129.2-128.7.1-73.9-54.4-128.3-129.2-128.3s-129.6 54.4-129.6 128.3c0 73.8 54.7 128.7 129.6 128.7"/><path d="m1514 115.4v13.9c0 70.3 47 128.2 113 139.6v55c-113-21.5-175.1-102.6-168.6-222.9v-99.2h55.6v101.3c-.1 4.2-.1 8.4 0 12.4"/></g></svg>